<svg aria-hidden="true" style="position: absolute; width: 0; height: 0; overflow: hidden;" version="1.1" xmlns="http://www.w3.org/2000/svg" xmlns:xlink="http://www.w3.org/1999/xlink">
<defs>
<symbol id="menu" viewBox="0 0 32 32">
<path stroke-linejoin="round" stroke-linecap="round" stroke-miterlimit="4" stroke-width="2" d="M4 16h24M4 8h24M4 24h24"></path>
</symbol>
<symbol id="developer_icon" viewBox="0 0 32 32">
<path d="M10.667 28v-2.667h-5.333q-1.1 0-1.883-0.783t-0.784-1.884v-16q0-1.1 0.784-1.883t1.883-0.784h21.333q1.1 0 1.884 0.784t0.783 1.883v16q0 1.1-0.783 1.884t-1.884 0.783h-5.333v2.667zM6.4 14.667l3.467-3.467-1.867-1.867-5.333 5.333 5.333 5.333 1.867-1.867zM25.6 14.667l-3.467 3.467 1.867 1.867 5.333-5.333-5.333-5.333-1.867 1.867z"></path>
</symbol>
<symbol id="telegram" viewBox="0 0 32 32">
<path d="M22.792 9.528c0.791-0.287 1.184-0.389 1.4-0.427q0.003 0.107-0.003 0.163c-0.309 3.259-1.668 11.276-2.367 15.007-0.163 0.873-0.288 1.289-1.133 0.793-0.555-0.327-1.056-0.737-1.595-1.089-1.767-1.159-4.295-2.883-4.087-2.779-1.739-1.147-1.011-1.848-0.040-2.784 0.156-0.151 0.32-0.308 0.48-0.475 0.072-0.075 0.423-0.4 0.916-0.86 1.584-1.472 4.645-4.319 4.723-4.648 0.013-0.053 0.024-0.256-0.095-0.361-0.12-0.107-0.297-0.071-0.424-0.041q-0.271 0.061-8.632 5.705-1.224 0.84-2.219 0.819l0.007 0.004c-0.873-0.308-1.744-0.573-2.619-0.84-1.203-0.344-1.78-0.528-2.355-0.718l0.622 0.178-0.411-0.131c6.036-2.629 10.056-4.36 12.071-5.199 2.925-1.217 4.661-1.917 5.76-2.317zM26.023 6.957c-0.271-0.216-0.596-0.377-0.952-0.458l-0.016-0.003c-0.267-0.064-0.52-0.084-0.711-0.080-0.636 0.011-1.317 0.191-2.461 0.605-1.167 0.424-2.959 1.149-5.875 2.361q-3.087 1.284-12.269 5.285c-0.539 0.215-1.031 0.459-1.42 0.747-0.36 0.268-0.863 0.747-0.955 1.48-0.069 0.555 0.092 1.067 0.42 1.471 0.285 0.351 0.651 0.564 0.929 0.699 0.413 0.2 0.971 0.375 1.46 0.528 0.764 0.24 1.525 0.484 2.292 0.719 2.371 0.725 4.323 1.323 6.469 2.739 1.575 1.037 3.12 2.12 4.697 3.155 0.576 0.377 1.113 0.811 1.707 1.16 0.651 0.38 1.475 0.728 2.48 0.636 1.517-0.14 2.307-1.536 2.627-3.24 0.695-3.72 2.076-11.848 2.4-15.243 0.009-0.114 0.014-0.246 0.014-0.38 0-0.283-0.023-0.56-0.068-0.83l0.004 0.029c-0.084-0.558-0.365-1.039-0.77-1.377l-0.003-0.003z"></path>
</symbol>
<symbol id="linkedin" viewBox="0 0 32 32">
<path d="M29.279 18.292v9.839h-5.704v-9.18c0-2.307-0.825-3.88-2.889-3.88-1.576 0-2.515 1.061-2.927 2.087-0.151 0.367-0.189 0.877-0.189 1.391v9.583h-5.707s0.077-15.547 0-17.159h5.707v2.432l-0.037 0.056h0.037v-0.056c0.757-1.167 2.111-2.835 5.141-2.835 3.753 0 6.568 2.453 6.568 7.723zM5.895 2.701c-1.951 0-3.228 1.28-3.228 2.964 0 1.647 1.24 2.965 3.153 2.965h0.037c1.991 0 3.227-1.319 3.227-2.965-0.035-1.684-1.235-2.964-3.188-2.964zM3.005 28.131h5.704v-17.159h-5.704z"></path>
</symbol>
<symbol id="github" viewBox="0 0 32 32">
<path d="M26.821 7.868c-0.116-0.153-0.23-0.288-0.35-0.417l0.003 0.003c0.112-0.286 0.209-0.626 0.274-0.977l0.006-0.036c0.047-0.307 0.074-0.661 0.074-1.022 0-0.978-0.199-1.91-0.558-2.758l0.017 0.046s-1.493-0.467-4.92 1.84c-1.329-0.381-2.855-0.6-4.432-0.6-0.012 0-0.024 0-0.037 0h0.002c-0.009-0-0.020-0-0.030-0-1.583 0-3.116 0.219-4.568 0.629l0.118-0.029c-3.427-2.333-4.92-1.84-4.92-1.84-0.34 0.796-0.538 1.722-0.538 2.694 0 0.352 0.026 0.699 0.076 1.037l-0.005-0.038c0.071 0.4 0.173 0.754 0.307 1.091l-0.013-0.038c-0.12 0.133-0.24 0.28-0.347 0.413-0.931 1.16-1.495 2.65-1.495 4.272 0 0.045 0 0.090 0.001 0.135l-0-0.007c-0 0.020-0 0.043-0 0.066 0 0.376 0.019 0.747 0.057 1.113l-0.004-0.046c0.427 5.907 4.36 7.28 8.107 7.707-0.516 0.481-0.881 1.116-1.023 1.832l-0.004 0.022c-0.111 0.406-0.174 0.872-0.174 1.352 0 0.036 0 0.071 0.001 0.106l-0-0.005v1.747c-1.492 0.133-3.023-0.084-3.497-1.415-0.531-1.304-1.369-2.39-2.427-3.204l-0.018-0.013c-0.086-0.045-0.16-0.095-0.229-0.151l0.002 0.002c-0.196-0.505-0.676-0.857-1.24-0.86h-0.007c0 0 0 0-0 0-0.734 0-1.33 0.593-1.333 1.326v0c-0.004 1.083 1.080 1.783 1.524 2.020 0.504 0.51 0.919 1.11 1.215 1.774l0.015 0.038c0.485 1.364 1.905 3.437 5.955 3.168l0.003 0.131 0.005 0.357c0 0.736 0.597 1.333 1.333 1.333v0h6.285c0.736 0 1.333-0.597 1.333-1.333v0s0.011-4.213 0.011-4.92c0.001-0.030 0.001-0.066 0.001-0.101 0-0.481-0.064-0.947-0.183-1.39l0.009 0.037-0.003-0.008 0.005 0.008c-0.012-0.047-0.029-0.084-0.043-0.129-0.157-0.685-0.505-1.273-0.985-1.722l-0.002-0.002 0.016 0.028-0.027-0.027c3.747-0.427 7.653-1.827 8.080-7.707 0.034-0.32 0.054-0.691 0.054-1.067 0-0.023-0-0.046-0-0.070l0 0.004c0-0.031 0.001-0.067 0.001-0.104 0-1.627-0.558-3.125-1.492-4.311l0.011 0.015z"></path>
</symbol>
<symbol id="arrow" viewBox="0 0 104 32">
<path d="M2.586 14.586c-0.781 0.781-0.781 2.047 0 2.828l12.728 12.728c0.781 0.781 2.047 0.781 2.828 0s0.781-2.047 0-2.828l-11.314-11.314 11.314-11.314c0.781-0.781 0.781-2.047 0-2.828s-2.047-0.781-2.828 0l-12.728 12.728zM104 14h-100v4h100v-4z"></path>
</symbol>
<symbol id="download" viewBox="0 0 32 32">
<path d="M8.667 26.667q-3.033 0-5.183-2.1t-2.151-5.133q0-2.6 1.567-4.633t4.1-2.6q0.767-2.7 2.851-4.533t4.816-2.233v10.767l-2.133-2.067-1.867 1.867 5.333 5.333 5.333-5.333-1.867-1.867-2.133 2.067v-10.767q3.433 0.467 5.717 3.084t2.283 6.149q2.3 0.267 3.817 1.984t1.516 4.016q0 2.5-1.749 4.251t-4.251 1.749z"></path>
</symbol>
<symbol id="icon-moon" viewBox="0 0 32 32">
            <path fill="none" stroke="#fff" style="stroke: var(--color16, #fff)" stroke-linejoin="round"
                stroke-linecap="round" stroke-miterlimit="4" stroke-width="2.1333"
                d="M2.189 16.585c0.516 7.14 6.773 12.949 14.261 13.269 5.282 0.22 10.007-2.163 12.843-5.92 1.173-1.54 0.544-2.566-1.417-2.219-0.96 0.166-1.948 0.235-2.978 0.192-7.002-0.277-12.73-5.946-12.757-12.642-0-0.030-0-0.065-0-0.1 0-1.798 0.396-3.504 1.104-5.035l-0.031 0.074c0.772-1.717-0.158-2.537-1.948-1.801-5.67 2.315-9.549 7.846-9.077 14.18z">
            </path>
        </symbol>
 <symbol id="icon-sun" viewBox="0 0 32 32">
            <path fill="none" stroke="#fff" style="stroke: var(--color16, #fff)" stroke-linejoin="round"
                stroke-linecap="round" stroke-miterlimit="4" stroke-width="2"
                d="M16 26c5.523 0 10-4.477 10-10s-4.477-10-10-10v0c-5.523 0-10 4.477-10 10s4.477 10 10 10v0z"></path>
            <path fill="none" stroke="#fff" style="stroke: var(--color16, #fff)" stroke-linejoin="round"
                stroke-linecap="round" stroke-miterlimit="4" stroke-width="3"
                d="M25.814 6.186l0.182-0.182M6.004 25.996l0.182-0.182M16 2.112v-0.112M16 30v-0.112M2.112 16h-0.112M30 16h-0.112M6.186 6.186l-0.182-0.182M25.996 25.996l-0.182-0.182">
            </path>
        </symbol>
<symbol id="location" viewBox="0 0 32 32">
<path d="M2.667 6.667l9.333-4 8 4 8.404-3.601c0.102-0.043 0.212-0.061 0.322-0.051s0.216 0.047 0.308 0.108c0.092 0.061 0.168 0.144 0.22 0.241s0.080 0.206 0.079 0.316v21.655l-9.333 4-8-4-8.404 3.601c-0.101 0.043-0.212 0.061-0.322 0.051s-0.216-0.047-0.308-0.108c-0.092-0.061-0.168-0.144-0.22-0.241s-0.080-0.206-0.079-0.316v-21.655zM20 26.352v-16.784l-0.087 0.037-7.913-3.957v16.784l0.087-0.037 7.913 3.957z"></path>
</symbol>
<symbol id="mail" viewBox="0 0 32 32">
<path d="M4 4h24c0.354 0 0.693 0.14 0.943 0.391s0.391 0.589 0.391 0.943v21.333c0 0.354-0.14 0.693-0.391 0.943s-0.589 0.391-0.943 0.391h-24c-0.354 0-0.693-0.14-0.943-0.391s-0.391-0.589-0.391-0.943v-21.333c0-0.354 0.14-0.693 0.391-0.943s0.589-0.391 0.943-0.391zM16.080 15.577l-8.549-7.26-1.727 2.032 10.293 8.74 10.108-8.747-1.744-2.017-8.381 7.252z"></path>
</symbol>
<symbol id="Mobile" viewBox="0 0 32 32">
<path d="M8 2.667h16c0.354 0 0.693 0.14 0.943 0.391s0.391 0.589 0.391 0.943v24c0 0.354-0.14 0.693-0.391 0.943s-0.589 0.391-0.943 0.391h-16c-0.354 0-0.693-0.14-0.943-0.391s-0.391-0.589-0.391-0.943v-24c0-0.354 0.14-0.693 0.391-0.943s0.589-0.391 0.943-0.391zM16 22.667c-0.354 0-0.693 0.14-0.943 0.391s-0.391 0.589-0.391 0.943 0.14 0.693 0.391 0.943c0.25 0.25 0.589 0.391 0.943 0.391s0.693-0.14 0.943-0.391c0.25-0.25 0.391-0.589 0.391-0.943s-0.14-0.693-0.391-0.943c-0.25-0.25-0.589-0.391-0.943-0.391z"></path>
</symbol>
<symbol id="chat" viewBox="0 0 32 32">
<path d="M16 2.221c8.151 0 14.76 5.545 14.76 12.385 0 6.841-6.609 12.386-14.76 12.386q-1.139-0.001-2.23-0.141l-0.367-0.051c-0.665-0.158-1.201-0.017-1.79 0.283l-0.189 0.1-0.192 0.11-0.198 0.118-0.879 0.541-0.247 0.147-0.261 0.15-0.275 0.152-0.291 0.153c-0.8 0.407-1.783 0.814-3.059 1.137-0.783 0.198-0.988 0.065-0.612-0.431l0.097-0.121 0.118-0.134 0.066-0.072q0.083-0.087 0.165-0.179l0.163-0.187 0.16-0.195 0.079-0.1 0.154-0.205q0.113-0.155 0.219-0.315l0.137-0.215c0.733-1.189 1.077-2.489 0.167-3.159l-0.442-0.303-0.287-0.205c-3.045-2.269-4.965-5.581-4.965-9.266 0-6.84 6.607-12.385 14.76-12.385zM16 4.321c-7.122 0-12.732 4.709-12.732 10.272 0 2.873 1.489 5.592 4.099 7.537l0.579 0.406 0.078 0.047 0.102 0.075c1.041 0.767 1.538 1.794 1.608 2.913l0.277-0.151 0.267-0.143 0.253-0.13 0.119-0.059 0.22-0.103q0.156-0.070 0.275-0.111c0.479-0.174 1.032-0.274 1.609-0.274 0.364 0 0.718 0.040 1.058 0.116l-0.032-0.006c0.667 0.099 1.437 0.156 2.22 0.156h0.001c7.121 0 12.732-4.709 12.732-10.273s-5.611-10.272-12.732-10.272zM18.147 18.286c0.469 0 0.83 0.375 0.83 0.844 0 0.429-0.32 0.762-0.749 0.8l-0.082 0.003h-8.746c-0.482 0-0.83-0.349-0.83-0.804 0-0.441 0.309-0.799 0.747-0.84l0.083-0.003zM22.915 13.817c0.469 0 0.83 0.375 0.83 0.843 0 0.429-0.32 0.762-0.749 0.8l-0.082 0.003h-13.514c-0.482 0-0.83-0.348-0.83-0.803 0-0.441 0.309-0.799 0.747-0.84l0.083-0.003zM22.915 9.143c0.469 0 0.83 0.362 0.83 0.817 0 0.441-0.32 0.787-0.749 0.826l-0.082 0.004h-13.514c-0.482 0-0.83-0.362-0.83-0.83 0-0.429 0.309-0.774 0.747-0.814l0.083-0.003z"></path>
</symbol>
<symbol id="close" viewBox="0 0 32 32">
<path d="M16 17.867l3.867 3.867q0.367 0.367 0.933 0.367t0.933-0.367 0.367-0.933-0.367-0.933l-3.867-3.867 3.867-3.867q0.367-0.367 0.367-0.933t-0.367-0.933-0.933-0.367-0.933 0.367l-3.867 3.867-3.867-3.867q-0.367-0.367-0.933-0.367t-0.933 0.367-0.367 0.933 0.367 0.933l3.867 3.867-3.867 3.867q-0.367 0.367-0.367 0.933t0.367 0.933 0.933 0.367 0.933-0.367zM16 29.333q-2.767 0-5.2-1.051t-4.233-2.849-2.849-4.233-1.051-5.2 1.051-5.2 2.849-4.233 4.233-2.849 5.2-1.051 5.2 1.051 4.233 2.849 2.851 4.233 1.049 5.2-1.051 5.2-2.849 4.233-4.233 2.851-5.2 1.049zM16 26.667q4.467 0 7.567-3.1t3.1-7.567-3.1-7.567-7.567-3.1-7.567 3.1-3.1 7.567 3.1 7.567 7.567 3.1z"></path>
</symbol>
</defs>
</svg>
